<mxfile host="app.diagrams.net" modified="2020-12-15T18:37:55.950Z" agent="5.0 (Macintosh; Intel Mac OS X 10_15_7) AppleWebKit/605.1.15 (KHTML, like Gecko) Version/14.0.1 Safari/605.1.15" etag="29Q9VAUQ3hwx3vH-512x" version="14.0.1" type="github">
  <diagram id="WgGNXocE23IqrcMPY2u2" name="Page-1">
    <mxGraphModel dx="916" dy="573" grid="1" gridSize="10" guides="1" tooltips="1" connect="1" arrows="1" fold="1" page="1" pageScale="1" pageWidth="3300" pageHeight="2339" math="0" shadow="0">
      <root>
        <mxCell id="0" />
        <mxCell id="1" parent="0" />
        <mxCell id="3fiQfD3PMQG2XW41a9uW-1" value="Actor" style="shape=umlActor;verticalLabelPosition=bottom;verticalAlign=top;html=1;outlineConnect=0;" vertex="1" parent="1">
          <mxGeometry x="293" y="200" width="30" height="60" as="geometry" />
        </mxCell>
        <mxCell id="3fiQfD3PMQG2XW41a9uW-2" value="School Staff" style="text;html=1;strokeColor=none;fillColor=none;align=center;verticalAlign=middle;whiteSpace=wrap;rounded=0;" vertex="1" parent="1">
          <mxGeometry x="288" y="160" width="40" height="40" as="geometry" />
        </mxCell>
        <mxCell id="3fiQfD3PMQG2XW41a9uW-3" value="aSchoolDB : School Database" style="rounded=0;whiteSpace=wrap;html=1;fillColor=#f5f5f5;strokeColor=#666666;fontColor=#333333;" vertex="1" parent="1">
          <mxGeometry x="420" y="210" width="120" height="40" as="geometry" />
        </mxCell>
        <mxCell id="3fiQfD3PMQG2XW41a9uW-4" value="aStudent : Student" style="rounded=0;whiteSpace=wrap;html=1;fillColor=#f5f5f5;strokeColor=#666666;fontColor=#333333;" vertex="1" parent="1">
          <mxGeometry x="600" y="210" width="120" height="40" as="geometry" />
        </mxCell>
        <mxCell id="3fiQfD3PMQG2XW41a9uW-5" value="aClass : Class" style="rounded=0;whiteSpace=wrap;html=1;fillColor=#f5f5f5;strokeColor=#666666;fontColor=#333333;" vertex="1" parent="1">
          <mxGeometry x="960" y="210" width="120" height="40" as="geometry" />
        </mxCell>
        <mxCell id="3fiQfD3PMQG2XW41a9uW-6" value="" style="endArrow=none;dashed=1;html=1;" edge="1" parent="1">
          <mxGeometry width="50" height="50" relative="1" as="geometry">
            <mxPoint x="308" y="310" as="sourcePoint" />
            <mxPoint x="308" y="290" as="targetPoint" />
          </mxGeometry>
        </mxCell>
        <mxCell id="3fiQfD3PMQG2XW41a9uW-7" value="" style="endArrow=none;dashed=1;html=1;" edge="1" parent="1">
          <mxGeometry width="50" height="50" relative="1" as="geometry">
            <mxPoint x="308" y="810" as="sourcePoint" />
            <mxPoint x="308" y="790" as="targetPoint" />
          </mxGeometry>
        </mxCell>
        <mxCell id="3fiQfD3PMQG2XW41a9uW-8" value="" style="endArrow=none;dashed=1;html=1;" edge="1" parent="1" source="3fiQfD3PMQG2XW41a9uW-19">
          <mxGeometry width="50" height="50" relative="1" as="geometry">
            <mxPoint x="479.41" y="810" as="sourcePoint" />
            <mxPoint x="479.4100000000001" y="260" as="targetPoint" />
          </mxGeometry>
        </mxCell>
        <mxCell id="3fiQfD3PMQG2XW41a9uW-9" value="" style="endArrow=none;dashed=1;html=1;" edge="1" parent="1" source="3fiQfD3PMQG2XW41a9uW-24">
          <mxGeometry width="50" height="50" relative="1" as="geometry">
            <mxPoint x="659.4100000000003" y="810" as="sourcePoint" />
            <mxPoint x="659.4100000000003" y="260" as="targetPoint" />
          </mxGeometry>
        </mxCell>
        <mxCell id="3fiQfD3PMQG2XW41a9uW-10" value="" style="endArrow=none;dashed=1;html=1;" edge="1" parent="1">
          <mxGeometry width="50" height="50" relative="1" as="geometry">
            <mxPoint x="839.4099999999999" y="450" as="sourcePoint" />
            <mxPoint x="839.8200000000002" y="260" as="targetPoint" />
          </mxGeometry>
        </mxCell>
        <mxCell id="3fiQfD3PMQG2XW41a9uW-11" value="aCourse : Course" style="rounded=0;whiteSpace=wrap;html=1;fillColor=#f5f5f5;strokeColor=#666666;fontColor=#333333;" vertex="1" parent="1">
          <mxGeometry x="780" y="210" width="120" height="40" as="geometry" />
        </mxCell>
        <mxCell id="3fiQfD3PMQG2XW41a9uW-12" value="" style="endArrow=none;dashed=1;html=1;" edge="1" parent="1" source="3fiQfD3PMQG2XW41a9uW-46">
          <mxGeometry width="50" height="50" relative="1" as="geometry">
            <mxPoint x="1019.4100000000003" y="810" as="sourcePoint" />
            <mxPoint x="1019.4100000000003" y="260" as="targetPoint" />
          </mxGeometry>
        </mxCell>
        <mxCell id="3fiQfD3PMQG2XW41a9uW-13" value="Actor" style="shape=umlActor;verticalLabelPosition=bottom;verticalAlign=top;html=1;outlineConnect=0;" vertex="1" parent="1">
          <mxGeometry x="250" y="200" width="30" height="60" as="geometry" />
        </mxCell>
        <mxCell id="3fiQfD3PMQG2XW41a9uW-14" value="" style="endArrow=none;dashed=1;html=1;" edge="1" parent="1" source="3fiQfD3PMQG2XW41a9uW-15">
          <mxGeometry width="50" height="50" relative="1" as="geometry">
            <mxPoint x="265" y="810" as="sourcePoint" />
            <mxPoint x="265" y="290" as="targetPoint" />
          </mxGeometry>
        </mxCell>
        <mxCell id="3fiQfD3PMQG2XW41a9uW-15" value="" style="rounded=0;whiteSpace=wrap;html=1;fillColor=#d5e8d4;strokeColor=#82b366;" vertex="1" parent="1">
          <mxGeometry x="260" y="310" width="10" height="480" as="geometry" />
        </mxCell>
        <mxCell id="3fiQfD3PMQG2XW41a9uW-16" value="" style="endArrow=none;dashed=1;html=1;" edge="1" parent="1" target="3fiQfD3PMQG2XW41a9uW-15">
          <mxGeometry width="50" height="50" relative="1" as="geometry">
            <mxPoint x="265" y="810" as="sourcePoint" />
            <mxPoint x="265" y="290" as="targetPoint" />
          </mxGeometry>
        </mxCell>
        <mxCell id="3fiQfD3PMQG2XW41a9uW-17" value="Student" style="text;html=1;strokeColor=none;fillColor=none;align=center;verticalAlign=middle;whiteSpace=wrap;rounded=0;" vertex="1" parent="1">
          <mxGeometry x="240" y="180" width="50" height="20" as="geometry" />
        </mxCell>
        <mxCell id="3fiQfD3PMQG2XW41a9uW-18" value="" style="endArrow=classic;html=1;exitX=1.024;exitY=0.024;exitDx=0;exitDy=0;exitPerimeter=0;entryX=0;entryY=0;entryDx=0;entryDy=0;" edge="1" parent="1" target="3fiQfD3PMQG2XW41a9uW-19">
          <mxGeometry width="50" height="50" relative="1" as="geometry">
            <mxPoint x="313.24" y="321.52" as="sourcePoint" />
            <mxPoint x="470" y="320" as="targetPoint" />
          </mxGeometry>
        </mxCell>
        <mxCell id="3fiQfD3PMQG2XW41a9uW-19" value="" style="rounded=0;whiteSpace=wrap;html=1;fillColor=#d5e8d4;strokeColor=#82b366;" vertex="1" parent="1">
          <mxGeometry x="475" y="320" width="10" height="30" as="geometry" />
        </mxCell>
        <mxCell id="3fiQfD3PMQG2XW41a9uW-20" value="" style="endArrow=none;dashed=1;html=1;" edge="1" parent="1" source="3fiQfD3PMQG2XW41a9uW-32" target="3fiQfD3PMQG2XW41a9uW-19">
          <mxGeometry width="50" height="50" relative="1" as="geometry">
            <mxPoint x="479.4100000000003" y="810" as="sourcePoint" />
            <mxPoint x="479.4100000000003" y="260" as="targetPoint" />
          </mxGeometry>
        </mxCell>
        <mxCell id="3fiQfD3PMQG2XW41a9uW-21" value="Login" style="text;html=1;strokeColor=none;fillColor=none;align=center;verticalAlign=middle;whiteSpace=wrap;rounded=0;" vertex="1" parent="1">
          <mxGeometry x="370" y="301" width="40" height="20" as="geometry" />
        </mxCell>
        <mxCell id="3fiQfD3PMQG2XW41a9uW-22" value="IdentifyStudent" style="text;html=1;strokeColor=none;fillColor=none;align=center;verticalAlign=middle;whiteSpace=wrap;rounded=0;" vertex="1" parent="1">
          <mxGeometry x="500" y="330" width="130" height="20" as="geometry" />
        </mxCell>
        <mxCell id="3fiQfD3PMQG2XW41a9uW-23" value="" style="endArrow=classic;html=1;exitX=1.024;exitY=0.024;exitDx=0;exitDy=0;exitPerimeter=0;" edge="1" parent="1">
          <mxGeometry width="50" height="50" relative="1" as="geometry">
            <mxPoint x="485" y="350" as="sourcePoint" />
            <mxPoint x="660" y="348" as="targetPoint" />
          </mxGeometry>
        </mxCell>
        <mxCell id="3fiQfD3PMQG2XW41a9uW-24" value="" style="rounded=0;whiteSpace=wrap;html=1;fillColor=#d5e8d4;strokeColor=#82b366;" vertex="1" parent="1">
          <mxGeometry x="655" y="350" width="10" height="30" as="geometry" />
        </mxCell>
        <mxCell id="3fiQfD3PMQG2XW41a9uW-25" value="" style="endArrow=none;dashed=1;html=1;" edge="1" parent="1" source="3fiQfD3PMQG2XW41a9uW-67" target="3fiQfD3PMQG2XW41a9uW-24">
          <mxGeometry width="50" height="50" relative="1" as="geometry">
            <mxPoint x="659.4100000000003" y="810" as="sourcePoint" />
            <mxPoint x="659.4100000000003" y="260" as="targetPoint" />
          </mxGeometry>
        </mxCell>
        <mxCell id="3fiQfD3PMQG2XW41a9uW-26" value="" style="endArrow=classic;html=1;dashed=1;entryX=1.286;entryY=0.148;entryDx=0;entryDy=0;entryPerimeter=0;" edge="1" parent="1" target="3fiQfD3PMQG2XW41a9uW-15">
          <mxGeometry width="50" height="50" relative="1" as="geometry">
            <mxPoint x="655" y="380" as="sourcePoint" />
            <mxPoint x="314.40999999999985" y="380.08000000000015" as="targetPoint" />
          </mxGeometry>
        </mxCell>
        <mxCell id="3fiQfD3PMQG2XW41a9uW-27" value="Student Identified" style="text;html=1;strokeColor=none;fillColor=none;align=center;verticalAlign=middle;whiteSpace=wrap;rounded=0;" vertex="1" parent="1">
          <mxGeometry x="325" y="361" width="130" height="20" as="geometry" />
        </mxCell>
        <mxCell id="3fiQfD3PMQG2XW41a9uW-28" value="" style="endArrow=none;html=1;exitX=1.206;exitY=0.024;exitDx=0;exitDy=0;exitPerimeter=0;" edge="1" parent="1">
          <mxGeometry width="50" height="50" relative="1" as="geometry">
            <mxPoint x="271.05999999999995" y="321.52" as="sourcePoint" />
            <mxPoint x="301" y="322" as="targetPoint" />
          </mxGeometry>
        </mxCell>
        <mxCell id="3fiQfD3PMQG2XW41a9uW-29" value="" style="endArrow=classic;html=1;exitX=1.286;exitY=0.21;exitDx=0;exitDy=0;exitPerimeter=0;entryX=0;entryY=0;entryDx=0;entryDy=0;" edge="1" parent="1" source="3fiQfD3PMQG2XW41a9uW-15" target="3fiQfD3PMQG2XW41a9uW-32">
          <mxGeometry width="50" height="50" relative="1" as="geometry">
            <mxPoint x="313" y="411.52" as="sourcePoint" />
            <mxPoint x="470" y="410" as="targetPoint" />
          </mxGeometry>
        </mxCell>
        <mxCell id="3fiQfD3PMQG2XW41a9uW-30" value="" style="endArrow=none;dashed=1;html=1;" edge="1" parent="1" source="3fiQfD3PMQG2XW41a9uW-35">
          <mxGeometry width="50" height="50" relative="1" as="geometry">
            <mxPoint x="840.6800000000005" y="810" as="sourcePoint" />
            <mxPoint x="839.3249350649353" y="440" as="targetPoint" />
          </mxGeometry>
        </mxCell>
        <mxCell id="3fiQfD3PMQG2XW41a9uW-31" value="CourseID" style="text;html=1;strokeColor=none;fillColor=none;align=center;verticalAlign=middle;whiteSpace=wrap;rounded=0;" vertex="1" parent="1">
          <mxGeometry x="352.5" y="391" width="75" height="21" as="geometry" />
        </mxCell>
        <mxCell id="3fiQfD3PMQG2XW41a9uW-32" value="" style="rounded=0;whiteSpace=wrap;html=1;fillColor=#d5e8d4;strokeColor=#82b366;" vertex="1" parent="1">
          <mxGeometry x="475" y="410" width="10" height="30" as="geometry" />
        </mxCell>
        <mxCell id="3fiQfD3PMQG2XW41a9uW-33" value="" style="endArrow=none;dashed=1;html=1;" edge="1" parent="1" source="3fiQfD3PMQG2XW41a9uW-40" target="3fiQfD3PMQG2XW41a9uW-32">
          <mxGeometry width="50" height="50" relative="1" as="geometry">
            <mxPoint x="479.4100000000003" y="810" as="sourcePoint" />
            <mxPoint x="479.9813684210526" y="350" as="targetPoint" />
          </mxGeometry>
        </mxCell>
        <mxCell id="3fiQfD3PMQG2XW41a9uW-34" value="" style="endArrow=classic;html=1;exitX=1.024;exitY=0.024;exitDx=0;exitDy=0;exitPerimeter=0;entryX=0;entryY=0;entryDx=0;entryDy=0;" edge="1" parent="1" target="3fiQfD3PMQG2XW41a9uW-35">
          <mxGeometry width="50" height="50" relative="1" as="geometry">
            <mxPoint x="485" y="440" as="sourcePoint" />
            <mxPoint x="660" y="438" as="targetPoint" />
          </mxGeometry>
        </mxCell>
        <mxCell id="3fiQfD3PMQG2XW41a9uW-35" value="" style="rounded=0;whiteSpace=wrap;html=1;fillColor=#d5e8d4;strokeColor=#82b366;" vertex="1" parent="1">
          <mxGeometry x="835" y="440" width="10" height="30" as="geometry" />
        </mxCell>
        <mxCell id="3fiQfD3PMQG2XW41a9uW-36" value="" style="endArrow=none;dashed=1;html=1;" edge="1" parent="1" target="3fiQfD3PMQG2XW41a9uW-35">
          <mxGeometry width="50" height="50" relative="1" as="geometry">
            <mxPoint x="840.6800000000003" y="810" as="sourcePoint" />
            <mxPoint x="839.3249350649353" y="440" as="targetPoint" />
          </mxGeometry>
        </mxCell>
        <mxCell id="3fiQfD3PMQG2XW41a9uW-37" value="" style="endArrow=classic;html=1;dashed=1;entryX=1.286;entryY=0.329;entryDx=0;entryDy=0;entryPerimeter=0;" edge="1" parent="1" target="3fiQfD3PMQG2XW41a9uW-15">
          <mxGeometry width="50" height="50" relative="1" as="geometry">
            <mxPoint x="840.5900000000001" y="470" as="sourcePoint" />
            <mxPoint x="499.9999999999999" y="470.0799999999999" as="targetPoint" />
          </mxGeometry>
        </mxCell>
        <mxCell id="3fiQfD3PMQG2XW41a9uW-38" value="Future Course(s) Displayed" style="text;html=1;strokeColor=none;fillColor=none;align=center;verticalAlign=middle;whiteSpace=wrap;rounded=0;" vertex="1" parent="1">
          <mxGeometry x="490" y="450" width="165" height="20" as="geometry" />
        </mxCell>
        <mxCell id="3fiQfD3PMQG2XW41a9uW-39" value="" style="endArrow=classic;html=1;exitX=1.024;exitY=0.024;exitDx=0;exitDy=0;exitPerimeter=0;entryX=0;entryY=0;entryDx=0;entryDy=0;" edge="1" parent="1">
          <mxGeometry width="50" height="50" relative="1" as="geometry">
            <mxPoint x="313.24" y="511.52" as="sourcePoint" />
            <mxPoint x="475" y="510" as="targetPoint" />
          </mxGeometry>
        </mxCell>
        <mxCell id="3fiQfD3PMQG2XW41a9uW-40" value="" style="rounded=0;whiteSpace=wrap;html=1;fillColor=#d5e8d4;strokeColor=#82b366;" vertex="1" parent="1">
          <mxGeometry x="475" y="510" width="10" height="30" as="geometry" />
        </mxCell>
        <mxCell id="3fiQfD3PMQG2XW41a9uW-41" value="" style="endArrow=none;dashed=1;html=1;" edge="1" parent="1" source="3fiQfD3PMQG2XW41a9uW-49" target="3fiQfD3PMQG2XW41a9uW-40">
          <mxGeometry width="50" height="50" relative="1" as="geometry">
            <mxPoint x="479.4100000000003" y="810" as="sourcePoint" />
            <mxPoint x="479.97701298701304" y="440" as="targetPoint" />
          </mxGeometry>
        </mxCell>
        <mxCell id="3fiQfD3PMQG2XW41a9uW-42" value="EnterFutureClasses" style="text;html=1;strokeColor=none;fillColor=none;align=center;verticalAlign=middle;whiteSpace=wrap;rounded=0;" vertex="1" parent="1">
          <mxGeometry x="325" y="492" width="130" height="20" as="geometry" />
        </mxCell>
        <mxCell id="3fiQfD3PMQG2XW41a9uW-43" value="" style="endArrow=classic;html=1;dashed=1;entryX=1.129;entryY=0.544;entryDx=0;entryDy=0;entryPerimeter=0;" edge="1" parent="1">
          <mxGeometry width="50" height="50" relative="1" as="geometry">
            <mxPoint x="1012" y="570" as="sourcePoint" />
            <mxPoint x="314.28999999999996" y="571.1200000000001" as="targetPoint" />
          </mxGeometry>
        </mxCell>
        <mxCell id="3fiQfD3PMQG2XW41a9uW-44" value="Classes Displayed" style="text;html=1;strokeColor=none;fillColor=none;align=center;verticalAlign=middle;whiteSpace=wrap;rounded=0;" vertex="1" parent="1">
          <mxGeometry x="500" y="550" width="130" height="21" as="geometry" />
        </mxCell>
        <mxCell id="3fiQfD3PMQG2XW41a9uW-45" value="" style="endArrow=classic;html=1;exitX=1.024;exitY=0.024;exitDx=0;exitDy=0;exitPerimeter=0;" edge="1" parent="1">
          <mxGeometry width="50" height="50" relative="1" as="geometry">
            <mxPoint x="485" y="540" as="sourcePoint" />
            <mxPoint x="1020" y="538" as="targetPoint" />
          </mxGeometry>
        </mxCell>
        <mxCell id="3fiQfD3PMQG2XW41a9uW-46" value="" style="rounded=0;whiteSpace=wrap;html=1;fillColor=#d5e8d4;strokeColor=#82b366;" vertex="1" parent="1">
          <mxGeometry x="1015" y="540" width="10" height="30" as="geometry" />
        </mxCell>
        <mxCell id="3fiQfD3PMQG2XW41a9uW-47" value="" style="endArrow=none;dashed=1;html=1;" edge="1" parent="1" target="3fiQfD3PMQG2XW41a9uW-46">
          <mxGeometry width="50" height="50" relative="1" as="geometry">
            <mxPoint x="1019.4100000000008" y="810" as="sourcePoint" />
            <mxPoint x="1019.4100000000005" y="260" as="targetPoint" />
          </mxGeometry>
        </mxCell>
        <mxCell id="3fiQfD3PMQG2XW41a9uW-48" value="" style="endArrow=classic;html=1;exitX=1.286;exitY=0.21;exitDx=0;exitDy=0;exitPerimeter=0;entryX=0.25;entryY=0;entryDx=0;entryDy=0;" edge="1" parent="1" target="3fiQfD3PMQG2XW41a9uW-49">
          <mxGeometry width="50" height="50" relative="1" as="geometry">
            <mxPoint x="270" y="610.8" as="sourcePoint" />
            <mxPoint x="472.14" y="610" as="targetPoint" />
          </mxGeometry>
        </mxCell>
        <mxCell id="3fiQfD3PMQG2XW41a9uW-49" value="" style="rounded=0;whiteSpace=wrap;html=1;fillColor=#d5e8d4;strokeColor=#82b366;" vertex="1" parent="1">
          <mxGeometry x="475" y="610" width="10" height="30" as="geometry" />
        </mxCell>
        <mxCell id="3fiQfD3PMQG2XW41a9uW-50" value="" style="endArrow=none;dashed=1;html=1;" edge="1" parent="1" source="3fiQfD3PMQG2XW41a9uW-57" target="3fiQfD3PMQG2XW41a9uW-49">
          <mxGeometry width="50" height="50" relative="1" as="geometry">
            <mxPoint x="479.4100000000003" y="810" as="sourcePoint" />
            <mxPoint x="479.96894736842137" y="540" as="targetPoint" />
          </mxGeometry>
        </mxCell>
        <mxCell id="3fiQfD3PMQG2XW41a9uW-51" value="ClassSelection" style="text;html=1;strokeColor=none;fillColor=none;align=center;verticalAlign=middle;whiteSpace=wrap;rounded=0;" vertex="1" parent="1">
          <mxGeometry x="352.5" y="591" width="75" height="20" as="geometry" />
        </mxCell>
        <mxCell id="3fiQfD3PMQG2XW41a9uW-52" value="" style="endArrow=classic;html=1;dashed=1;entryX=1.286;entryY=0.148;entryDx=0;entryDy=0;entryPerimeter=0;" edge="1" parent="1">
          <mxGeometry width="50" height="50" relative="1" as="geometry">
            <mxPoint x="480" y="641" as="sourcePoint" />
            <mxPoint x="270" y="641.04" as="targetPoint" />
          </mxGeometry>
        </mxCell>
        <mxCell id="3fiQfD3PMQG2XW41a9uW-53" value="Class Selected" style="text;html=1;strokeColor=none;fillColor=none;align=center;verticalAlign=middle;whiteSpace=wrap;rounded=0;" vertex="1" parent="1">
          <mxGeometry x="347.5" y="622" width="85" height="20" as="geometry" />
        </mxCell>
        <mxCell id="3fiQfD3PMQG2XW41a9uW-54" value="IdentifyCourse" style="text;html=1;strokeColor=none;fillColor=none;align=center;verticalAlign=middle;whiteSpace=wrap;rounded=0;" vertex="1" parent="1">
          <mxGeometry x="507.5" y="420" width="130" height="20" as="geometry" />
        </mxCell>
        <mxCell id="3fiQfD3PMQG2XW41a9uW-55" value="IdentifyFutureClasses" style="text;html=1;strokeColor=none;fillColor=none;align=center;verticalAlign=middle;whiteSpace=wrap;rounded=0;" vertex="1" parent="1">
          <mxGeometry x="507.5" y="520" width="130" height="20" as="geometry" />
        </mxCell>
        <mxCell id="3fiQfD3PMQG2XW41a9uW-56" value="" style="endArrow=classic;html=1;exitX=1.286;exitY=0.21;exitDx=0;exitDy=0;exitPerimeter=0;entryX=0.25;entryY=0;entryDx=0;entryDy=0;" edge="1" parent="1">
          <mxGeometry width="50" height="50" relative="1" as="geometry">
            <mxPoint x="270" y="680.8" as="sourcePoint" />
            <mxPoint x="477.5" y="680" as="targetPoint" />
          </mxGeometry>
        </mxCell>
        <mxCell id="3fiQfD3PMQG2XW41a9uW-57" value="" style="rounded=0;whiteSpace=wrap;html=1;fillColor=#d5e8d4;strokeColor=#82b366;" vertex="1" parent="1">
          <mxGeometry x="475" y="680" width="10" height="42" as="geometry" />
        </mxCell>
        <mxCell id="3fiQfD3PMQG2XW41a9uW-58" value="" style="endArrow=none;dashed=1;html=1;" edge="1" parent="1" target="3fiQfD3PMQG2XW41a9uW-57">
          <mxGeometry width="50" height="50" relative="1" as="geometry">
            <mxPoint x="479.4100000000003" y="810" as="sourcePoint" />
            <mxPoint x="479.95216216216227" y="640" as="targetPoint" />
          </mxGeometry>
        </mxCell>
        <mxCell id="3fiQfD3PMQG2XW41a9uW-59" value="VerifyRegistration" style="text;html=1;strokeColor=none;fillColor=none;align=center;verticalAlign=middle;whiteSpace=wrap;rounded=0;" vertex="1" parent="1">
          <mxGeometry x="352.5" y="661" width="75" height="20" as="geometry" />
        </mxCell>
        <mxCell id="3fiQfD3PMQG2XW41a9uW-60" value="" style="endArrow=classic;html=1;dashed=1;entryX=1.143;entryY=0.913;entryDx=0;entryDy=0;entryPerimeter=0;exitX=0;exitY=1;exitDx=0;exitDy=0;" edge="1" parent="1" source="3fiQfD3PMQG2XW41a9uW-67" target="3fiQfD3PMQG2XW41a9uW-15">
          <mxGeometry width="50" height="50" relative="1" as="geometry">
            <mxPoint x="646" y="751" as="sourcePoint" />
            <mxPoint x="270" y="723.04" as="targetPoint" />
          </mxGeometry>
        </mxCell>
        <mxCell id="3fiQfD3PMQG2XW41a9uW-61" value="Registration Validation Results" style="text;html=1;strokeColor=none;fillColor=none;align=center;verticalAlign=middle;whiteSpace=wrap;rounded=0;" vertex="1" parent="1">
          <mxGeometry x="311.25" y="724" width="157.5" height="20" as="geometry" />
        </mxCell>
        <mxCell id="3fiQfD3PMQG2XW41a9uW-62" value="Register a Student Sequence Diagram" style="text;html=1;strokeColor=none;fillColor=none;align=center;verticalAlign=middle;whiteSpace=wrap;rounded=0;fontStyle=1" vertex="1" parent="1">
          <mxGeometry x="197" y="110" width="275" height="20" as="geometry" />
        </mxCell>
        <mxCell id="3fiQfD3PMQG2XW41a9uW-63" value="" style="rounded=0;whiteSpace=wrap;html=1;fillColor=none;strokeWidth=3;" vertex="1" parent="1">
          <mxGeometry x="211" y="98" width="914" height="712" as="geometry" />
        </mxCell>
        <mxCell id="3fiQfD3PMQG2XW41a9uW-64" value="" style="rounded=0;whiteSpace=wrap;html=1;fillColor=#d5e8d4;strokeColor=#82b366;" vertex="1" parent="1">
          <mxGeometry x="303" y="310" width="10" height="480" as="geometry" />
        </mxCell>
        <mxCell id="3fiQfD3PMQG2XW41a9uW-65" value="" style="verticalLabelPosition=bottom;verticalAlign=top;html=1;shape=card;whiteSpace=wrap;size=20;arcSize=12;strokeWidth=1;fillColor=none;direction=west;" vertex="1" parent="1">
          <mxGeometry x="211" y="97" width="250" height="46" as="geometry" />
        </mxCell>
        <mxCell id="3fiQfD3PMQG2XW41a9uW-66" value="" style="endArrow=classic;html=1;fontSize=10;exitX=0.5;exitY=1;exitDx=0;exitDy=0;" edge="1" parent="1">
          <mxGeometry width="50" height="50" relative="1" as="geometry">
            <mxPoint x="483" y="722.0000000000002" as="sourcePoint" />
            <mxPoint x="656.0000000000002" y="721.9999999999998" as="targetPoint" />
          </mxGeometry>
        </mxCell>
        <mxCell id="3fiQfD3PMQG2XW41a9uW-67" value="" style="rounded=0;whiteSpace=wrap;html=1;fillColor=#d5e8d4;strokeColor=#82b366;" vertex="1" parent="1">
          <mxGeometry x="655" y="722" width="10" height="30" as="geometry" />
        </mxCell>
        <mxCell id="3fiQfD3PMQG2XW41a9uW-68" value="" style="endArrow=none;dashed=1;html=1;" edge="1" parent="1" target="3fiQfD3PMQG2XW41a9uW-67">
          <mxGeometry width="50" height="50" relative="1" as="geometry">
            <mxPoint x="659.4100000000008" y="810" as="sourcePoint" />
            <mxPoint x="659.9801123595507" y="380" as="targetPoint" />
          </mxGeometry>
        </mxCell>
        <mxCell id="3fiQfD3PMQG2XW41a9uW-69" value="VerifyStudentEligibility" style="text;html=1;strokeColor=none;fillColor=none;align=center;verticalAlign=middle;whiteSpace=wrap;rounded=0;" vertex="1" parent="1">
          <mxGeometry x="507.5" y="702" width="130" height="20" as="geometry" />
        </mxCell>
      </root>
    </mxGraphModel>
  </diagram>
</mxfile>
